<?xml version="1.0" standalone="no"?>
<!DOCTYPE svg PUBLIC "-//W3C//DTD SVG 20010904//EN"
 "http://www.w3.org/TR/2001/REC-SVG-20010904/DTD/svg10.dtd">
<svg version="1.0" xmlns="http://www.w3.org/2000/svg"
 width="512.000000pt" height="512.000000pt" viewBox="0 0 512.000000 512.000000"
 preserveAspectRatio="xMidYMid meet">
<metadata>
Created by potrace 1.14, written by Peter Selinger 2001-2017
</metadata>
<g transform="translate(0.000000,512.000000) scale(0.100000,-0.100000)"
fill="#000000" stroke="none">
<path d="M2365 4814 c-133 -30 -279 -103 -374 -189 -47 -43 -120 -150 -145
-213 -70 -181 -16 -397 137 -546 40 -39 102 -88 137 -109 64 -37 231 -97 270
-97 20 0 20 -8 20 -742 0 -687 1 -746 18 -778 43 -87 187 -95 251 -14 21 27
21 31 21 779 l0 753 45 7 c149 22 343 133 436 248 177 220 155 505 -55 707
-90 88 -194 144 -346 187 -80 23 -325 27 -415 7z m330 -229 c136 -36 266 -141
300 -245 38 -114 4 -243 -85 -330 -92 -89 -203 -130 -355 -130 -147 0 -260 43
-350 134 -71 72 -99 133 -100 221 0 56 6 82 27 128 49 104 163 192 291 223 73
17 202 17 272 -1z"/>
<path d="M895 3906 c-232 -55 -401 -191 -457 -368 -17 -56 -18 -110 -18 -867
0 -896 0 -897 66 -1101 220 -679 927 -1178 1801 -1271 146 -15 532 -6 668 15
718 116 1305 498 1579 1026 64 124 98 216 134 360 l26 105 4 825 c4 924 6 895
-67 1008 -45 69 -139 157 -207 194 -103 56 -199 80 -334 86 -152 5 -248 -14
-379 -79 -97 -48 -200 -143 -244 -226 -55 -104 -57 -126 -57 -884 0 -771 3
-737 -68 -874 -26 -50 -62 -96 -127 -162 -83 -82 -104 -97 -206 -146 -164 -80
-257 -101 -444 -102 -166 0 -254 15 -383 66 -231 92 -388 249 -458 459 -17 51
-19 114 -24 801 l-5 745 -39 79 c-69 139 -195 239 -371 295 -90 29 -299 37
-390 16z m317 -246 c62 -23 149 -94 176 -144 15 -28 18 -98 23 -761 l5 -730
27 -88 c48 -155 117 -268 232 -382 398 -393 1127 -447 1620 -120 85 57 218
187 270 265 58 87 99 185 119 282 14 66 16 176 16 766 0 788 -4 749 85 838 74
75 141 98 275 99 93 0 112 -3 162 -27 70 -33 145 -100 169 -153 17 -38 19 -86
19 -831 0 -857 -1 -872 -55 -1039 -182 -556 -719 -966 -1425 -1087 -150 -26
-446 -35 -603 -19 -784 81 -1428 556 -1583 1167 -40 158 -44 259 -44 1008 0
812 -3 782 78 868 51 55 95 81 175 103 69 20 185 13 259 -15z"/>
</g>
</svg>
