<svg width="48" height="53" viewBox="0 0 48 53" fill="none" xmlns="http://www.w3.org/2000/svg">
<path d="M39.1831 12.4302C37.4497 12.4318 35.7877 12.99 34.5623 13.9823C33.3366 14.9746 32.6471 16.32 32.6455 17.7233V30.9074C32.6638 31.8508 32.4503 32.7877 32.0171 33.6636C31.5838 34.5395 30.9397 35.3368 30.1222 36.0093C29.3044 36.6818 28.3298 37.2158 27.2548 37.5803C26.1798 37.9448 25.0259 38.1324 23.8605 38.1324C22.695 38.1324 21.5411 37.9448 20.4661 37.5803C19.3912 37.2158 18.4165 36.6818 17.5989 36.0093C16.7813 35.3368 16.1371 34.5395 15.7039 33.6636C15.2707 32.7877 15.057 31.8508 15.0754 30.9074V17.7233C15.0754 16.3196 14.3866 14.9734 13.1606 13.9809C11.9345 12.9883 10.2716 12.4307 8.53772 12.4307C6.80382 12.4307 5.14091 12.9883 3.91485 13.9809C2.68879 14.9734 2 16.3196 2 17.7233V32.3033C2 34.6273 2.56543 36.9286 3.66403 39.0757C4.76262 41.2228 6.37286 43.1736 8.40278 44.8171C10.4327 46.4603 12.8426 47.7639 15.4948 48.6533C18.1471 49.5425 20.9897 50.0003 23.8605 50.0003C26.7312 50.0003 29.5739 49.5425 32.2262 48.6533C34.8784 47.7639 37.2882 46.4603 39.318 44.8171C41.3481 43.1736 42.9584 41.2228 44.0568 39.0757C45.1554 36.9286 45.7209 34.6273 45.7209 32.3033V17.7233C45.719 16.32 45.0298 14.9746 43.8041 13.9823C42.5785 12.99 40.9165 12.4318 39.1831 12.4302ZM42.8607 32.3022C42.8607 36.3817 40.8587 40.294 37.2956 43.1785C33.7324 46.063 28.8996 47.6837 23.8605 47.6837C18.8213 47.6837 13.9885 46.063 10.4253 43.1785C6.86209 40.294 4.86028 36.3817 4.86028 32.3022V17.7233C4.86865 16.9382 5.25976 16.1875 5.94853 15.6347C6.63726 15.082 7.56785 14.7718 8.53772 14.7718C9.50759 14.7718 10.4382 15.082 11.1269 15.6347C11.8157 16.1875 12.2068 16.9382 12.2152 17.7233V30.9074C12.2152 33.4077 13.4421 35.8056 15.626 37.5736C17.8099 39.3416 20.7719 40.3347 23.8605 40.3347C26.949 40.3347 29.9111 39.3416 32.0951 37.5736C34.2787 35.8056 35.5058 33.4077 35.5058 30.9074V17.7233C35.5058 16.9337 35.8931 16.1765 36.5828 15.6182C37.2726 15.0599 38.2078 14.7462 39.1831 14.7462C40.1586 14.7462 41.0939 15.0599 41.7836 15.6182C42.4731 16.1765 42.8607 16.9337 42.8607 17.7233V32.3022Z" fill="url(#paint0_linear_2:231)"/>
<path d="M22.4305 15.1283V30.3917C22.4305 30.6988 22.5811 30.9932 22.8493 31.2104C23.1175 31.4275 23.4813 31.5494 23.8606 31.5494C24.2399 31.5494 24.6036 31.4275 24.8719 31.2104C25.1401 30.9932 25.2907 30.6988 25.2907 30.3917V15.1283C27.1372 14.8403 28.7848 14.0054 29.9118 12.7868C31.0387 11.5682 31.5642 10.0533 31.3855 8.53789C31.2067 7.02247 30.3369 5.61541 28.9454 4.5914C27.5539 3.5674 25.741 3 23.8606 3C21.9802 3 20.1672 3.5674 18.7758 4.5914C17.3844 5.61541 16.5144 7.02247 16.3357 8.53789C16.157 10.0533 16.6825 11.5682 17.8095 12.7868C18.9364 14.0054 20.584 14.8403 22.4305 15.1283ZM23.8606 5.31801C24.79 5.31801 25.6985 5.54112 26.4713 5.95913C27.244 6.37714 27.8464 6.97127 28.202 7.66639C28.5576 8.36151 28.6507 9.12641 28.4694 9.86434C28.288 10.6023 27.8404 11.2801 27.1832 11.8121C26.526 12.3441 25.6887 12.7064 24.7772 12.8531C23.8656 12.9999 22.9208 12.9245 22.0622 12.6366C21.2035 12.3486 20.4697 11.861 19.9533 11.2354C19.437 10.6098 19.1615 9.87429 19.1615 9.12189C19.163 8.11336 19.6585 7.14647 20.5395 6.43336C21.4204 5.72024 22.6148 5.31912 23.8606 5.31801Z" fill="url(#paint1_linear_2:231)"/>
<defs>
<linearGradient id="paint0_linear_2:231" x1="2" y1="31.2154" x2="45.7209" y2="31.2154" gradientUnits="userSpaceOnUse">
<stop stop-color="#EC441E"/>
<stop offset="1" stop-color="#EE2A4A"/>
</linearGradient>
<linearGradient id="paint1_linear_2:231" x1="16.3015" y1="17.2747" x2="31.4197" y2="17.2747" gradientUnits="userSpaceOnUse">
<stop stop-color="#EC441E"/>
<stop offset="1" stop-color="#EE2A4A"/>
</linearGradient>
</defs>
</svg>
